# xmcd
#
# Track frame offsets: 
#        150
#        13912
#        34513
#        52979
#        64874
#        75224
#        86209
#        94687
#        124293
#        142252
#        154335
#        181494
#        194467
#        205558
#        213028
#        250010
#
# Disc length: 3690 seconds
#
# Revision: 1
# Processed by: cddbd v1.5.2PL0 Copyright (c) Steve Scherf et al.
# Submitted via: ExactAudioCopy v1.0b3
#
DISCID=d80e6810
DTITLE=Various Artist - Jazz lullaby
DYEAR=2009
DGENRE=Jazz
TTITLE0=Rosemary Clooney - Swinging on a star
TTITLE1=Melody Gardot - Over the rainbow
TTITLE2=Jamie Cullum - Singin’ in the rain
TTITLE3=Ella Fitzgerald - Dreams are made for children
TTITLE4=Louis Armstrong - What a wonderful world
TTITLE5=Mel Tormé - Hit the road to dreamland
TTITLE6=Ella Fitzgerald - Russian lullaby
TTITLE7=Abbey Lincoln - Conversation with a baby
TTITLE8=Sarah Vaughan - Lullaby of birdland
TTITLE9=Bill Evans - Lullaby for Helene
TTITLE10=Miles Davis - My funny valentine
TTITLE11=Ray Bryant - Lullaby
TTITLE12=Wes Montgomery - Little child (Daddy dear)
TTITLE13=George Benson - Golden slumbers
TTITLE14=Shelly Berg - Chuck Berghofer - Gregg Field - Blackbird
TTITLE15=Diana Krall - Fly me to the moon [live]
EXTD=YEAR: 2009
EXTT0=
EXTT1=
EXTT2=
EXTT3=
EXTT4=
EXTT5=
EXTT6=
EXTT7=
EXTT8=
EXTT9=
EXTT10=
EXTT11=
EXTT12=
EXTT13=
EXTT14=
EXTT15=
PLAYORDER=
